<svg width="56" height="80" viewBox="0 0 56 80" fill="none" xmlns="http://www.w3.org/2000/svg">
<g clip-path="url(#clip0_2293_4985)">
<path d="M54 -1.52588e-05H2C0.8906 -1.52588e-05 0 0.898425 0 1.99998V78C0 78.8086 0.488279 79.5391 1.2305 79.8516C1.9805 80.1602 2.8399 79.9922 3.4102 79.4219L28.0002 54.8319L52.5902 79.4219C52.9691 79.8008 53.4808 80.0117 54.0004 80.0117C54.2621 80.0117 54.5199 79.961 54.7699 79.8633C55.5199 79.5547 56.0004 78.8242 56.0004 78.0117V1.99969C56.0004 0.898095 55.1094 -1.52588e-05 54 -1.52588e-05ZM4 3.99998H52V12H4V3.99998ZM52 73.172L29.41 50.582C29.0194 50.1914 28.5116 49.9921 27.9998 49.9921C27.488 49.9921 26.9803 50.1914 26.5896 50.582L3.9996 73.172V16H51.9996L52 73.172Z" fill="#565050"/>
</g>
<defs>
<clipPath id="clip0_2293_4985">
<rect width="56" height="80" fill="white"/>
</clipPath>
</defs>
</svg>
