<svg width="40" height="40" viewBox="0 0 40 40" fill="none" xmlns="http://www.w3.org/2000/svg">
<path d="M20 22.3333L11.8334 30.5C11.5278 30.8055 11.1389 30.9583 10.6667 30.9583C10.1945 30.9583 9.80558 30.8055 9.50002 30.5C9.19446 30.1944 9.04169 29.8055 9.04169 29.3333C9.04169 28.8611 9.19446 28.4722 9.50002 28.1666L17.6667 20L9.50002 11.8333C9.19446 11.5277 9.04169 11.1388 9.04169 10.6666C9.04169 10.1944 9.19446 9.80551 9.50002 9.49996C9.80558 9.1944 10.1945 9.04163 10.6667 9.04163C11.1389 9.04163 11.5278 9.1944 11.8334 9.49996L20 17.6666L28.1667 9.49996C28.4722 9.1944 28.8611 9.04163 29.3334 9.04163C29.8056 9.04163 30.1945 9.1944 30.5 9.49996C30.8056 9.80551 30.9584 10.1944 30.9584 10.6666C30.9584 11.1388 30.8056 11.5277 30.5 11.8333L22.3334 20L30.5 28.1666C30.8056 28.4722 30.9584 28.8611 30.9584 29.3333C30.9584 29.8055 30.8056 30.1944 30.5 30.5C30.1945 30.8055 29.8056 30.9583 29.3334 30.9583C28.8611 30.9583 28.4722 30.8055 28.1667 30.5L20 22.3333Z" fill="black"/>
</svg>
