<svg width="80" height="80" viewBox="0 0 80 80" fill="none" xmlns="http://www.w3.org/2000/svg">
<g clip-path="url(#clip0_2295_2)">
<path d="M40 0C17.944 0 -1.40204e-05 17.944 -1.40204e-05 40C-1.40204e-05 46.845 1.78699 53.604 5.17599 59.606L0.0769856 77.45C-0.123014 78.148 0.0719864 78.9 0.585986 79.414C0.965986 79.795 1.47699 80 1.99999 80C2.18399 80 2.36799 79.975 2.54999 79.923L20.394 74.824C26.396 78.213 33.155 80 40 80C62.056 80 80 62.056 80 40C80 17.944 62.056 0 40 0ZM40 76C33.585 76 27.25 74.253 21.681 70.948C21.369 70.762 21.016 70.668 20.66 70.668C20.475 70.668 20.291 70.693 20.11 70.745L4.91199 75.088L9.25498 59.89C9.40598 59.361 9.33299 58.792 9.05199 58.32C5.74699 52.75 3.99999 46.415 3.99999 40C3.99999 20.149 20.149 4 40 4C59.851 4 76 20.149 76 40C76 59.851 59.851 76 40 76Z" fill="#565050"/>
</g>
<defs>
<clipPath id="clip0_2295_2">
<rect width="80" height="80" fill="white"/>
</clipPath>
</defs>
</svg>
