<svg width="40" height="40" viewBox="0 0 40 40" fill="none" xmlns="http://www.w3.org/2000/svg">
<path d="M14.2065 27.5129L34.3023 7.37932C34.7765 6.90419 35.3298 6.66663 35.9621 6.66663C36.5944 6.66663 37.1477 6.90419 37.6219 7.37932C38.0962 7.85445 38.3333 8.41906 38.3333 9.07316C38.3333 9.72725 38.0962 10.2911 37.6219 10.7646L15.8664 32.6206C15.3921 33.0957 14.8388 33.3333 14.2065 33.3333C13.5742 33.3333 13.0209 33.0957 12.5467 32.6206L2.35062 22.4053C1.87638 21.9302 1.64875 21.3664 1.66772 20.7138C1.68669 20.0613 1.93408 19.4967 2.4099 19.02C2.88572 18.5433 3.44927 18.3057 4.10055 18.3073C4.75184 18.3089 5.3146 18.5465 5.78883 19.02L14.2065 27.5129Z" fill="#F47B64"/>
</svg>
