<svg width="30" height="30" viewBox="0 0 30 30" fill="none" xmlns="http://www.w3.org/2000/svg">
<path d="M15 1.15198C7.35178 1.15198 1.15198 7.35178 1.15198 15C1.15198 22.6482 7.35178 28.848 15 28.848C22.6482 28.848 28.848 22.6482 28.848 15C28.848 7.35178 22.6482 1.15198 15 1.15198ZM19.5411 15.7716C18.9849 15.7623 18.4764 15.7785 17.8299 15.7506C17.7249 15.7458 16.041 15.771 16.0461 15.8016C16.1685 16.5504 15.9927 17.346 16.0032 18.1032C16.0095 18.5445 16.1391 22.5369 16.0794 24.0096L12.7425 24.0402C12.7287 22.7862 12.7899 21.4965 12.7356 19.8426C12.7245 19.5027 12.7134 15.9243 12.6738 15.7359C12.6738 15.7359 11.199 15.7464 10.5096 15.7506C10.5096 15.7506 10.5003 14.43 10.5003 13.9833C10.5003 13.5444 10.5003 13.1061 10.5003 12.6672C10.5003 12.6672 12.2217 12.5718 12.7158 12.5289C12.7158 12.5289 12.7662 10.8537 12.8346 10.311C12.9135 9.69118 12.9213 9.06478 13.2852 8.51638C13.9521 7.51258 14.6103 6.62788 15.8364 6.36118C16.3002 6.25978 19.3587 5.65858 19.4721 6.15328L19.4025 9.13168C18.5709 9.13168 17.5743 9.04738 16.7256 9.67768C16.2531 10.0293 16.1226 10.3221 16.0749 10.9005C16.0464 11.2368 16.0398 12.5979 16.0398 12.5979C16.488 12.6618 17.1513 12.6336 17.6331 12.5979C18.1773 12.5574 19.5744 12.7017 19.5744 12.7017C19.5738 13.6026 19.5378 15.6825 19.5411 15.7716Z" fill="#3A5897"/>
</svg>
