<svg width="62" height="49" viewBox="0 0 62 49" fill="none" xmlns="http://www.w3.org/2000/svg">
<g clip-path="url(#clip0_2294_2)">
<path d="M45.5 0C39.4 0 33.9 3.4 31 8.7C28.1 3.4 22.6 0 16.5 0C7.4 0 0 7.4 0 16.5C0 31.7 16 45.1 30.8 48.7C30.9 48.7 31 48.7 31 48.7H31.2C46 45.1 62 31.7 62 16.5C62 7.4 54.6 0 45.5 0ZM31 46.7C17 43.2 2 30.7 2 16.5C2 8.5 8.5 2 16.5 2C22.5 2 28 5.8 30.1 11.4C30.2 11.8 30.6 12 31 12C31.4 12 31.8 11.7 31.9 11.4C34 5.8 39.5 2 45.5 2C53.5 2 60 8.5 60 16.5C60 30.7 45 43.2 31 46.7Z" fill="#565050"/>
</g>
<defs>
<clipPath id="clip0_2294_2">
<rect width="62" height="49" fill="white"/>
</clipPath>
</defs>
</svg>
