<svg width="30" height="30" viewBox="0 0 30 30" fill="none" xmlns="http://www.w3.org/2000/svg">
<g clip-path="url(#clip0_2296_17)">
<path fill-rule="evenodd" clip-rule="evenodd" d="M15.0135 30C23.2506 30 30 23.2506 30 15.0135C30 6.74906 23.2506 0 15.0135 0C6.74906 0 0 6.74906 0 15.0135C0 23.2506 6.74906 30 15.0135 30Z" fill="#C33C2D"/>
<path fill-rule="evenodd" clip-rule="evenodd" d="M7.73218 12.3825C7.73218 13.7639 8.18394 15.1197 9.11399 15.9426C9.32687 16.1294 9.83171 16.501 10.1768 16.501C10.4693 16.501 10.5224 16.1559 10.5755 15.9162C10.9742 14.5347 10.6286 15.1197 10.1237 13.9768C9.59235 12.8078 9.93794 10.9211 10.5755 9.99098C11.771 8.15741 13.1529 7.49325 15.4117 7.49325C16.6869 7.49325 17.6701 7.97155 18.3878 8.58262C20.9391 10.7348 19.1851 17.6436 16.0763 17.2984C12.9671 16.9524 15.4914 13.1529 15.4914 11.4791C15.4914 8.90172 11.9308 9.30034 11.9308 12.595C11.9308 13.7375 12.3826 14.0564 12.303 14.3489C11.8247 15.9427 11.5057 17.7498 11.0804 19.4241C10.6286 21.125 10.6817 22.5595 10.8149 24.2869C10.8149 24.3134 10.8415 24.3665 10.8945 24.3665C10.9476 24.393 10.9742 24.3665 11.0008 24.3399C12.2229 23.1179 12.9937 21.1515 13.2861 19.956C13.4454 19.3444 13.6578 18.6002 13.7909 17.9622C13.8175 17.856 14.083 18.202 14.2427 18.3613C15.5179 19.5303 17.7497 19.2648 19.1585 18.4144C21.9212 16.7401 23.0912 12.0105 21.6293 9.16721C21.2045 8.37033 20.8053 7.99821 20.2214 7.36059C17.8293 4.94248 12.6215 5.1018 10.0706 7.51985C8.68878 8.79502 7.73218 10.2835 7.73218 12.3825Z" fill="white"/>
</g>
<defs>
<clipPath id="clip0_2296_17">
<rect width="30" height="30" fill="white"/>
</clipPath>
</defs>
</svg>
