<svg width="40" height="40" viewBox="0 0 40 40" fill="none" xmlns="http://www.w3.org/2000/svg">
<path d="M11.0266 35C10.2589 35 9.61831 34.7433 9.10498 34.23C8.59165 33.7167 8.33442 33.0761 8.33331 32.3083V14.3583C8.33331 13.5917 8.59053 12.9517 9.10498 12.4383C9.61942 11.925 10.26 11.6678 11.0266 11.6667H14.1666V10.8333C14.1666 9.21333 14.7339 7.83611 15.8683 6.70167C17.0028 5.56722 18.38 5 20 5C21.62 5 22.9972 5.56722 24.1317 6.70167C25.2661 7.83611 25.8333 9.21333 25.8333 10.8333V11.6667H28.975C29.7417 11.6667 30.3817 11.9239 30.895 12.4383C31.4083 12.9528 31.6655 13.5933 31.6667 14.36V32.3083C31.6667 33.075 31.4094 33.7156 30.895 34.23C30.3805 34.7444 29.7405 35.0011 28.975 35H11.0266ZM11.0266 33.3333H28.975C29.2305 33.3333 29.4655 33.2267 29.68 33.0133C29.8944 32.8 30.0011 32.5644 30 32.3067V14.36C30 14.1033 29.8933 13.8678 29.68 13.6533C29.4667 13.4389 29.2311 13.3322 28.9733 13.3333H25.8333V17.5C25.8333 17.7378 25.7539 17.9361 25.595 18.095C25.4361 18.2539 25.2378 18.3333 25 18.3333C24.7622 18.3333 24.5639 18.2539 24.405 18.095C24.2461 17.9361 24.1667 17.7378 24.1667 17.5V13.3333H15.8333V17.5C15.8333 17.7378 15.7539 17.9361 15.595 18.095C15.4361 18.2539 15.2378 18.3333 15 18.3333C14.7622 18.3333 14.5639 18.2539 14.405 18.095C14.2461 17.9361 14.1666 17.7378 14.1666 17.5V13.3333H11.0266C10.77 13.3333 10.5344 13.44 10.32 13.6533C10.1055 13.8667 9.99887 14.1022 9.99998 14.36V32.3083C9.99998 32.5639 10.1066 32.7989 10.32 33.0133C10.5333 33.2278 10.7683 33.3344 11.025 33.3333M15.8333 11.6667H24.1667V10.8333C24.1667 9.66 23.7655 8.67222 22.9633 7.87C22.1611 7.06778 21.1733 6.66667 20 6.66667C18.8266 6.66667 17.8389 7.06778 17.0366 7.87C16.2344 8.67222 15.8333 9.66 15.8333 10.8333V11.6667Z" fill="black"/>
</svg>
